<svg width="95" height="42" viewBox="0 0 95 42" fill="none" xmlns="http://www.w3.org/2000/svg">
<path d="M46.8766 39.0814C46.8766 39.0814 37.3396 26.8371 13.4337 28.1804L9.88776 30.867C9.88776 30.8573 30.6081 26.4505 46.8766 39.0814Z" fill="white"/>
<path d="M46.7791 39.9512C46.7791 39.9512 34.797 29.804 8.105 33.1381L4.4032 35.8633C4.4032 35.873 27.2083 30.0649 46.7791 39.9512Z" fill="white"/>
<path d="M46.9545 41.3622C46.9545 41.3622 31.29 30.3838 3.28292 38.115L0 42C0 42 23.146 31.7271 46.9545 41.3622Z" fill="#F8F5F5"/>
<path d="M48.1235 39.0814C48.1235 39.0814 57.6605 26.8371 81.5664 28.1804L85.1123 30.867C85.1123 30.8573 64.392 26.4505 48.1235 39.0814Z" fill="white"/>
<path d="M48.2209 39.9512C48.2209 39.9512 60.2031 29.804 86.8853 33.1381L90.5871 35.8633C90.5969 35.873 67.7918 30.0649 48.2209 39.9512Z" fill="white"/>
<path d="M48.0456 41.3622C48.0456 41.3622 63.7101 30.3838 91.7171 38.115L95 42C95 42 71.854 31.7271 48.0456 41.3622Z" fill="white"/>
<path d="M44.2464 31.3985L43.9541 31.3309L44.2464 31.3985Z" fill="#666666"/>
<path d="M47.3734 32.1137L44.2463 31.3889L47.3734 32.1137Z" fill="#666666"/>
<path d="M47.8605 32.2296L47.3734 32.1137L47.8605 32.2296Z" fill="#666666"/>
<path d="M42.7753 31.0603L26.0393 27.1947C26.0393 27.1947 27.1206 9.20018 29.1274 5.96273L36.9499 3.08284L38.265 0L46.0777 4.52278L43.5741 23.3677L47.8604 25.6001V32.2296" fill="white"/>
<path d="M43.9541 31.3309L42.7754 31.0603L43.9541 31.3309Z" fill="#666666"/>
<path d="M56.1116 0L48.2989 4.52278L50.8025 23.3677L46.5162 25.6001V32.2296L68.3373 27.1947C68.3373 27.1947 67.256 9.20018 65.2493 5.96273L57.417 3.08284L56.1116 0Z" fill="white"/>
<path d="M50.9777 18.8159H47.8604V19.879H50.9777V18.8159Z" fill="white"/>
<path d="M47.6169 32.162L46.9447 34.3654L39.9697 32.7612L40.6322 30.5674L47.6169 32.162Z" fill="white"/>
<path d="M44.2171 32.7902L44.8892 34.9936L51.874 33.3893L51.2018 31.1956L44.2171 32.7902Z" fill="white"/>
</svg>
