<?xml version="1.0" encoding="utf-8"?>
<!-- Generator: Adobe Illustrator 26.0.0, SVG Export Plug-In . SVG Version: 6.00 Build 0)  -->
<svg version="1.1" id="Layer_1" xmlns="http://www.w3.org/2000/svg" xmlns:xlink="http://www.w3.org/1999/xlink" x="0px" y="0px"
	 viewBox="0 0 1366 768" style="enable-background:new 0 0 1366 768;" xml:space="preserve">
<style type="text/css">
	.st0{stroke:#000000;stroke-miterlimit:10;}
	.st1{fill:#666666;}
	.st2{fill:#FFFFFF;}
</style>
<g>
	<g>
		<path class="st0" d="M483.5,723.5"/>
		<g>
			<path class="st1" d="M300.4,431.1h1H300.4z"/>
			<g>
				<path class="st1" d="M648.6,554.8c0,0-97.9-126.7-343.3-112.8l-36.4,27.8C268.9,469.7,481.6,424.1,648.6,554.8z"/>
				<path class="st1" d="M647.6,563.8c0,0-123-105-397-70.5l-38,28.2C212.6,521.6,446.7,461.5,647.6,563.8z"/>
				<path class="st1" d="M649.4,578.4c0,0-160.8-113.6-448.3-33.6L167.4,585C167.4,585,405,478.7,649.4,578.4z"/>
			</g>
			<path class="st1" d="M1129.6,592.5"/>
			<path class="st1" d="M822,431.1h1H822z"/>
			<g>
				<path class="st1" d="M661.4,554.8c0,0,97.9-126.7,343.3-112.8l36.4,27.8C1041.1,469.7,828.4,424.1,661.4,554.8z"/>
				<path class="st1" d="M662.4,563.8c0,0,123-105,396.9-70.5l38,28.2C1097.4,521.6,863.3,461.5,662.4,563.8z"/>
				<path class="st1" d="M660.6,578.4c0,0,160.8-113.6,448.3-33.6l33.7,40.2C1142.6,585,905,478.7,660.6,578.4z"/>
			</g>
			<g>
				<path class="st1" d="M480.5,130.5"/>
				<path class="st1" d="M621.6,475.3l-3-0.7"/>
				<path class="st1" d="M653.7,482.7l-32.1-7.5"/>
				<path class="st1" d="M658.7,483.9l-5-1.2"/>
				<path class="st1" d="M606.5,471.8l-171.8-40c0,0,11.1-186.2,31.7-219.7l80.3-29.8l13.5-31.9l80.2,46.8l-25.7,195l44,23.1v68.6"
					/>
				<path class="st1" d="M618.6,474.6l-12.1-2.8"/>
				<path class="st1" d="M743.4,150.4l-80.2,46.8l25.7,195l-44,23.1v68.6l224-52.1c0,0-11.1-186.2-31.7-219.7l-80.4-29.8
					L743.4,150.4z"/>
				<path class="st1" d="M602.9,326.3h1H602.9z"/>
				<path class="st1" d="M818.2,326.3h-1H818.2z"/>
			</g>
			<rect x="658.7" y="345.1" class="st1" width="32" height="11"/>
		</g>
	</g>
	<polygon class="st2" points="656.2,483.2 649.3,506 577.7,489.4 584.5,466.7 	"/>
	<polygon class="st2" points="621.3,489.7 628.2,512.5 699.9,495.9 693,473.2 	"/>
</g>
</svg>
